<svg width="2000" height="2000" viewBox="0 0 2000 2000" fill="none" xmlns="http://www.w3.org/2000/svg">
<g clip-path="url(#clip0_696_514)">
<circle cx="1000" cy="1000" r="1000" fill="white"/>
<path d="M1217 1370L1000.49 995H1433.51L1217 1370Z" fill="#940986"/>
<path d="M1001 996L1217.51 1371H784.494L1001 996Z" fill="#CA0270"/>
<path d="M785 1370L568.494 995H1001.51L785 1370Z" fill="#E9011A"/>
<path d="M1217 620L1433.51 995H1000.49L1217 620Z" fill="#3851A3"/>
<path d="M569 995L352.494 620H785.506L569 995Z" fill="#F6B80D"/>
<path d="M1451 773L1277.79 473L1624.21 473L1451 773Z" fill="#03C3D4"/>
<path d="M1170 395L1256.6 545H1083.4L1170 395Z" fill="#01EAFF"/>
<path d="M786 1372.51L1219.01 1372.51L1002.51 1747.51L786 1372.51Z" fill="#FA098D"/>
<path d="M785 620L1001.51 995H568.494L785 620Z" fill="#EF9E0E"/>
</g>
<defs>
<clipPath id="clip0_696_514">
<rect width="2000" height="2000" fill="white"/>
</clipPath>
</defs>
</svg>
