<svg width="5428" height="1265" viewBox="0 0 5428 1265" fill="none" xmlns="http://www.w3.org/2000/svg">
<path d="M349.199 1000V260H859.199V394H503.199V560H813.199V689H503.199V866H864.199V1000H349.199Z" fill="white"/>
<path d="M1708.06 848.591L1530.83 541.636H1885.28L1708.06 848.591Z" fill="#940986"/>
<path d="M1531.25 542.455L1708.47 849.41H1354.03L1531.25 542.455Z" fill="#CA0270"/>
<path d="M1354.44 848.591L1177.22 541.636H1531.66L1354.44 848.591Z" fill="#E9011A"/>
<path d="M1708.05 234.681L1885.28 541.636H1530.83L1708.05 234.681Z" fill="#3851A3"/>
<path d="M1177.64 541.636L1000.42 234.681L1354.86 234.681L1177.64 541.636Z" fill="#F6B80D"/>
<path d="M1899.6 359.919L1757.82 114.355L2041.37 114.355L1899.6 359.919Z" fill="#03C3D4"/>
<path d="M1669.58 50.5076L1740.47 173.29H1598.69L1669.58 50.5076Z" fill="#01EAFF"/>
<path d="M1355.26 850.643L1709.7 850.643L1532.48 1157.6L1355.26 850.643Z" fill="#FA098D"/>
<path d="M1354.44 234.681L1531.66 541.636H1177.22L1354.44 234.681Z" fill="#EF9E0E"/>
<path d="M2181.69 1000V260H2691.69V394H2335.69V560H2645.69V689H2335.69V866H2696.69V1000H2181.69ZM2823.29 1000V260H2964.29L3283.29 732V260H3436.29V1000H3293.29L2976.29 541V1000H2823.29ZM3770.32 1000V394H3543.32V260H4151.32V394H3924.32V1000H3770.32ZM4257.86 1000V260H4411.86V1000H4257.86ZM4823.9 1010C4775.9 1010 4734.9 1004.33 4700.9 993C4667.57 981 4639.57 966 4616.9 948C4594.9 929.333 4577.24 910 4563.9 890C4550.57 869.333 4540.57 850 4533.9 832C4527.9 813.333 4523.9 798.333 4521.9 787C4520.57 775 4519.9 769 4519.9 769H4675.9C4675.9 769 4677.24 774.667 4679.9 786C4683.24 797.333 4689.9 810.667 4699.9 826C4709.9 840.667 4725.24 853.667 4745.9 865C4766.57 875.667 4794.57 881 4829.9 881C4873.24 881 4905.24 872 4925.9 854C4946.57 835.333 4956.9 813.333 4956.9 788C4956.9 765.333 4948.9 747.333 4932.9 734C4917.57 720.667 4893.57 710.667 4860.9 704L4761.9 685C4721.9 677.667 4684.57 666 4649.9 650C4615.9 634 4588.24 612 4566.9 584C4545.57 555.333 4534.9 518.667 4534.9 474C4534.9 428.667 4546.24 389.333 4568.9 356C4591.57 322 4623.24 296 4663.9 278C4705.24 259.333 4753.57 250 4808.9 250C4860.9 250 4903.9 257.667 4937.9 273C4972.57 287.667 4999.9 306 5019.9 328C5040.57 349.333 5055.57 371 5064.9 393C5074.9 415 5081.24 433.333 5083.9 448C5087.24 462.667 5088.9 470 5088.9 470H4936.9C4936.9 470 4935.57 465.333 4932.9 456C4930.9 446.667 4925.57 436 4916.9 424C4908.24 412 4894.9 401.333 4876.9 392C4859.57 382.667 4835.57 378 4804.9 378C4762.9 378 4732.57 387.333 4713.9 406C4695.24 424 4685.9 443.667 4685.9 465C4685.9 487 4695.24 504 4713.9 516C4732.57 528 4756.9 537 4786.9 543L4891.9 564C4931.9 571.333 4968.57 583.667 5001.9 601C5035.24 618.333 5061.57 641.667 5080.9 671C5100.9 699.667 5110.9 735.333 5110.9 778C5110.9 822 5099.9 861.667 5077.9 897C5055.9 931.667 5023.57 959.333 4980.9 980C4938.24 1000 4885.9 1010 4823.9 1010Z" fill="white"/>
</svg>
