<svg width="5146" height="1265" viewBox="0 0 5146 1265" fill="none" xmlns="http://www.w3.org/2000/svg">
<path d="M349.199 1000V260H859.199V394H503.199V560H813.199V689H503.199V866H864.199V1000H349.199Z" fill="#EE443F"/>
<path d="M1535.55 812.576L1387.86 556.78H1683.23L1535.55 812.576Z" fill="#940986"/>
<path d="M1388.21 557.462L1535.89 813.258H1240.52L1388.21 557.462Z" fill="#CA0270"/>
<path d="M1240.87 812.576L1093.18 556.78H1388.55L1240.87 812.576Z" fill="#E9011A"/>
<path d="M1535.55 300.984L1683.23 556.78H1387.86L1535.55 300.984Z" fill="#3851A3"/>
<path d="M1093.53 556.78L945.847 300.984H1241.21L1093.53 556.78Z" fill="#F6B80D"/>
<path d="M1695.16 405.349L1577.02 200.712L1813.31 200.712L1695.16 405.349Z" fill="#03C3D4"/>
<path d="M1503.49 147.507L1562.56 249.825H1444.41L1503.49 147.507Z" fill="#01EAFF"/>
<path d="M1241.55 814.286L1536.92 814.286L1389.24 1070.08L1241.55 814.286Z" fill="#FA098D"/>
<path d="M1240.87 300.984L1388.55 556.78H1093.19L1240.87 300.984Z" fill="#EF9E0E"/>
<path d="M1899.97 1000V260H2409.97V394H2053.97V560H2363.97V689H2053.97V866H2414.97V1000H1899.97ZM2541.58 1000V260H2682.58L3001.58 732V260H3154.58V1000H3011.58L2694.58 541V1000H2541.58ZM3488.6 1000V394H3261.6V260H3869.6V394H3642.6V1000H3488.6ZM3976.15 1000V260H4130.15V1000H3976.15ZM4542.18 1010C4494.18 1010 4453.18 1004.33 4419.18 993C4385.85 981 4357.85 966 4335.18 948C4313.18 929.333 4295.52 910 4282.18 890C4268.85 869.333 4258.85 850 4252.18 832C4246.18 813.333 4242.18 798.333 4240.18 787C4238.85 775 4238.18 769 4238.18 769H4394.18C4394.18 769 4395.52 774.667 4398.18 786C4401.52 797.333 4408.18 810.667 4418.18 826C4428.18 840.667 4443.52 853.667 4464.18 865C4484.85 875.667 4512.85 881 4548.18 881C4591.52 881 4623.52 872 4644.18 854C4664.85 835.333 4675.18 813.333 4675.18 788C4675.18 765.333 4667.18 747.333 4651.18 734C4635.85 720.667 4611.85 710.667 4579.18 704L4480.18 685C4440.18 677.667 4402.85 666 4368.18 650C4334.18 634 4306.52 612 4285.18 584C4263.85 555.333 4253.18 518.667 4253.18 474C4253.18 428.667 4264.52 389.333 4287.18 356C4309.85 322 4341.52 296 4382.18 278C4423.52 259.333 4471.85 250 4527.18 250C4579.18 250 4622.18 257.667 4656.18 273C4690.85 287.667 4718.18 306 4738.18 328C4758.85 349.333 4773.85 371 4783.18 393C4793.18 415 4799.52 433.333 4802.18 448C4805.52 462.667 4807.18 470 4807.18 470H4655.18C4655.18 470 4653.85 465.333 4651.18 456C4649.18 446.667 4643.85 436 4635.18 424C4626.52 412 4613.18 401.333 4595.18 392C4577.85 382.667 4553.85 378 4523.18 378C4481.18 378 4450.85 387.333 4432.18 406C4413.52 424 4404.18 443.667 4404.18 465C4404.18 487 4413.52 504 4432.18 516C4450.85 528 4475.18 537 4505.18 543L4610.18 564C4650.18 571.333 4686.85 583.667 4720.18 601C4753.52 618.333 4779.85 641.667 4799.18 671C4819.18 699.667 4829.18 735.333 4829.18 778C4829.18 822 4818.18 861.667 4796.18 897C4774.18 931.667 4741.85 959.333 4699.18 980C4656.52 1000 4604.18 1010 4542.18 1010Z" fill="#EE443F"/>
</svg>
